<mxfile host="Electron" modified="2024-10-19T06:52:43.967Z" agent="Mozilla/5.0 (Windows NT 10.0; Win64; x64) AppleWebKit/537.36 (KHTML, like Gecko) draw.io/22.0.3 Chrome/114.0.5735.289 Electron/25.8.4 Safari/537.36" etag="Vr7KgaaHet4VQtLtoqSl" version="22.0.3" type="device">
  <diagram id="wFE0QG_FPsp0jaGvCLVb" name="Page-1">
    <mxGraphModel dx="1970" dy="644" grid="1" gridSize="10" guides="1" tooltips="1" connect="1" arrows="1" fold="1" page="1" pageScale="1" pageWidth="850" pageHeight="1100" math="0" shadow="0">
      <root>
        <mxCell id="0" />
        <mxCell id="1" parent="0" />
        <mxCell id="_5mSTuPxr-ZiKRkBDSY7-1" value="" style="swimlane;fontStyle=2;childLayout=stackLayout;horizontal=1;startSize=28;horizontalStack=1;resizeParent=1;resizeParentMax=0;resizeLast=0;collapsible=0;marginBottom=0;swimlaneFillColor=none;fontFamily=Comic Sans MS;fontSize=16;points=[];verticalAlign=top;stackBorder=0;resizable=1;strokeWidth=2;sketch=1;disableMultiStroke=1;" parent="1" vertex="1">
          <mxGeometry y="90" width="900" height="640" as="geometry" />
        </mxCell>
        <object label="Stage of Journey" status="New" id="_5mSTuPxr-ZiKRkBDSY7-2">
          <mxCell style="swimlane;strokeWidth=2;fontFamily=Comic Sans MS;html=0;startSize=1;verticalAlign=bottom;spacingBottom=5;points=[];childLayout=stackLayout;stackBorder=20;stackSpacing=20;resizeLast=0;resizeParent=1;horizontalStack=0;collapsible=0;sketch=1;strokeColor=none;fillStyle=solid;fillColor=default;swimlaneFillColor=none;" parent="_5mSTuPxr-ZiKRkBDSY7-1" vertex="1">
            <mxGeometry y="28" width="180" height="620" as="geometry" />
          </mxCell>
        </object>
        <object label="User" placeholders="1" id="_5mSTuPxr-ZiKRkBDSY7-3">
          <mxCell style="whiteSpace=wrap;html=1;strokeWidth=2;fillColor=#d5e8d4;fontStyle=1;spacingTop=0;rounded=1;arcSize=9;points=[];sketch=1;fontFamily=Comic Sans MS;hachureGap=8;fillWeight=1;strokeColor=#82b366;" parent="_5mSTuPxr-ZiKRkBDSY7-2" vertex="1">
            <mxGeometry x="20" y="21" width="140" height="80" as="geometry" />
          </mxCell>
        </object>
        <object label="Events" placeholders="1" id="_5mSTuPxr-ZiKRkBDSY7-4">
          <mxCell style="whiteSpace=wrap;html=1;strokeWidth=2;fillColor=#dae8fc;fontStyle=1;spacingTop=0;rounded=1;arcSize=9;points=[];sketch=1;fontFamily=Comic Sans MS;hachureGap=8;fillWeight=1;strokeColor=#6c8ebf;" parent="_5mSTuPxr-ZiKRkBDSY7-2" vertex="1">
            <mxGeometry x="20" y="121" width="140" height="79" as="geometry" />
          </mxCell>
        </object>
        <object label="Touchpoints" placeholders="1" id="7V4wO9x8OLWOLXkMa94R-16">
          <mxCell style="whiteSpace=wrap;html=1;strokeWidth=2;fillColor=#dae8fc;fontStyle=1;spacingTop=0;rounded=1;arcSize=9;points=[];sketch=1;fontFamily=Comic Sans MS;hachureGap=8;fillWeight=1;strokeColor=#6c8ebf;" vertex="1" parent="_5mSTuPxr-ZiKRkBDSY7-2">
            <mxGeometry x="20" y="220" width="140" height="80" as="geometry" />
          </mxCell>
        </object>
        <object label="Feeling" placeholders="1" id="7V4wO9x8OLWOLXkMa94R-17">
          <mxCell style="whiteSpace=wrap;html=1;strokeWidth=2;fillColor=#dae8fc;fontStyle=1;spacingTop=0;rounded=1;arcSize=9;points=[];sketch=1;fontFamily=Comic Sans MS;hachureGap=8;fillWeight=1;strokeColor=#6c8ebf;" vertex="1" parent="_5mSTuPxr-ZiKRkBDSY7-2">
            <mxGeometry x="20" y="320" width="140" height="80" as="geometry" />
          </mxCell>
        </object>
        <mxCell id="7V4wO9x8OLWOLXkMa94R-38" value="" style="endArrow=none;html=1;rounded=0;fontFamily=Comic Sans MS;" edge="1" parent="_5mSTuPxr-ZiKRkBDSY7-2">
          <mxGeometry width="50" height="50" relative="1" as="geometry">
            <mxPoint y="512" as="sourcePoint" />
            <mxPoint x="902" y="512" as="targetPoint" />
          </mxGeometry>
        </mxCell>
        <object label="Emotion" placeholders="1" id="7V4wO9x8OLWOLXkMa94R-18">
          <mxCell style="whiteSpace=wrap;html=1;strokeWidth=2;fillColor=#dae8fc;fontStyle=1;spacingTop=0;rounded=1;arcSize=9;points=[];sketch=1;fontFamily=Comic Sans MS;hachureGap=8;fillWeight=1;strokeColor=#6c8ebf;" vertex="1" parent="_5mSTuPxr-ZiKRkBDSY7-2">
            <mxGeometry x="20" y="420" width="140" height="80" as="geometry" />
          </mxCell>
        </object>
        <object label="Opportunities" placeholders="1" id="7V4wO9x8OLWOLXkMa94R-19">
          <mxCell style="whiteSpace=wrap;html=1;strokeWidth=2;fillColor=#dae8fc;fontStyle=1;spacingTop=0;rounded=1;arcSize=9;points=[];sketch=1;fontFamily=Comic Sans MS;hachureGap=8;fillWeight=1;strokeColor=#6c8ebf;" vertex="1" parent="_5mSTuPxr-ZiKRkBDSY7-2">
            <mxGeometry x="20" y="520" width="140" height="80" as="geometry" />
          </mxCell>
        </object>
        <object label="Explore" status="New" id="7V4wO9x8OLWOLXkMa94R-5">
          <mxCell style="swimlane;strokeWidth=2;fontFamily=Comic Sans MS;html=0;startSize=1;verticalAlign=bottom;spacingBottom=5;points=[];childLayout=stackLayout;stackBorder=20;stackSpacing=20;resizeLast=0;resizeParent=1;horizontalStack=0;collapsible=0;sketch=1;strokeColor=none;fillStyle=solid;fillColor=none;gradientColor=none;" vertex="1" parent="_5mSTuPxr-ZiKRkBDSY7-1">
            <mxGeometry x="180" y="28" width="180" height="612" as="geometry" />
          </mxCell>
        </object>
        <object label="Task 2&lt;br&gt;&lt;span style=&quot;font-weight: normal&quot;&gt;&lt;i&gt;&lt;font style=&quot;font-size: 10px&quot;&gt;%status%&lt;/font&gt;&lt;/i&gt;&lt;/span&gt;" placeholders="1" id="7V4wO9x8OLWOLXkMa94R-7">
          <mxCell style="whiteSpace=wrap;html=1;strokeWidth=2;fillColor=swimlane;fontStyle=1;spacingTop=0;rounded=1;arcSize=9;points=[];sketch=1;fontFamily=Comic Sans MS;hachureGap=8;fillWeight=1;" vertex="1" parent="7V4wO9x8OLWOLXkMa94R-5">
            <mxGeometry x="20" y="21" width="140" height="80" as="geometry" />
          </mxCell>
        </object>
        <object label="&lt;div style=&quot;font-size: 9px;&quot;&gt;&lt;div style=&quot;&quot;&gt;- Browse fitness plans and diet suggestions.&lt;br&gt; - Search for relevant courses and diet plans.&lt;br&gt; - View recommended equipment and programs.&lt;br&gt;&lt;/div&gt;&lt;/div&gt;" placeholders="1" id="7V4wO9x8OLWOLXkMa94R-14">
          <mxCell style="whiteSpace=wrap;html=1;strokeWidth=2;fillColor=#ffe6cc;fontStyle=1;spacingTop=0;rounded=1;arcSize=9;points=[];sketch=1;fontFamily=Comic Sans MS;hachureGap=8;fillWeight=1;align=left;strokeColor=#d79b00;" vertex="1" parent="7V4wO9x8OLWOLXkMa94R-5">
            <mxGeometry x="20" y="121" width="140" height="80" as="geometry" />
          </mxCell>
        </object>
        <object label="&lt;div style=&quot;font-size: 9px;&quot;&gt;- Home page&lt;br&gt; - Course and diet recommendation page&lt;br&gt; - Equipment recommendations&lt;br&gt;&lt;/div&gt;" placeholders="1" id="7V4wO9x8OLWOLXkMa94R-8">
          <mxCell style="whiteSpace=wrap;html=1;strokeWidth=2;fillColor=#ffe6cc;fontStyle=1;spacingTop=0;rounded=1;arcSize=9;points=[];sketch=1;fontFamily=Comic Sans MS;hachureGap=8;fillWeight=1;align=left;strokeColor=#d79b00;" vertex="1" parent="7V4wO9x8OLWOLXkMa94R-5">
            <mxGeometry x="20" y="221" width="140" height="80" as="geometry" />
          </mxCell>
        </object>
        <object label="&lt;div style=&quot;font-size: 9px;&quot;&gt;“Can I find a fitness and diet plan that matches my goals?”&lt;br&gt;&lt;/div&gt;&lt;div style=&quot;&quot;&gt;&lt;font style=&quot;font-size: 9px;&quot;&gt;&quot;Is this device really suitable for me to use&quot;&lt;/font&gt;&lt;br&gt;&lt;/div&gt;" placeholders="1" id="7V4wO9x8OLWOLXkMa94R-21">
          <mxCell style="whiteSpace=wrap;html=1;strokeWidth=2;fillColor=#ffe6cc;fontStyle=1;spacingTop=0;rounded=1;arcSize=9;points=[];sketch=1;fontFamily=Comic Sans MS;hachureGap=8;fillWeight=1;align=left;strokeColor=#d79b00;" vertex="1" parent="7V4wO9x8OLWOLXkMa94R-5">
            <mxGeometry x="20" y="321" width="140" height="80" as="geometry" />
          </mxCell>
        </object>
        <object label="&lt;div style=&quot;&quot;&gt;&lt;div style=&quot;&quot;&gt;&lt;font style=&quot;font-size: 12px;&quot;&gt;😐&lt;/font&gt;&lt;/div&gt;&lt;div style=&quot;&quot;&gt;&lt;font style=&quot;font-size: 12px;&quot;&gt;neutral&lt;/font&gt;&lt;/div&gt;&lt;/div&gt;" placeholders="1" id="7V4wO9x8OLWOLXkMa94R-25">
          <mxCell style="whiteSpace=wrap;html=1;strokeWidth=2;fillColor=#ffe6cc;fontStyle=1;spacingTop=0;rounded=1;arcSize=9;points=[];sketch=1;fontFamily=Comic Sans MS;hachureGap=8;fillWeight=1;align=center;strokeColor=#d79b00;" vertex="1" parent="7V4wO9x8OLWOLXkMa94R-5">
            <mxGeometry x="20" y="421" width="140" height="80" as="geometry" />
          </mxCell>
        </object>
        <object label="&lt;div style=&quot;font-size: 9px;&quot;&gt;- Recommend courses and diets based on user goals and data.&lt;br&gt; - Provide popular courses and equipment suggestions.&lt;br&gt;&lt;/div&gt;" placeholders="1" id="7V4wO9x8OLWOLXkMa94R-26">
          <mxCell style="whiteSpace=wrap;html=1;strokeWidth=2;fillColor=#ffe6cc;fontStyle=1;spacingTop=0;rounded=1;arcSize=9;points=[];sketch=1;fontFamily=Comic Sans MS;hachureGap=8;fillWeight=1;align=left;strokeColor=#d79b00;" vertex="1" parent="7V4wO9x8OLWOLXkMa94R-5">
            <mxGeometry x="20" y="521" width="140" height="80" as="geometry" />
          </mxCell>
        </object>
        <object label="Select" status="New" id="7V4wO9x8OLWOLXkMa94R-10">
          <mxCell style="swimlane;strokeWidth=2;fontFamily=Comic Sans MS;html=0;startSize=1;verticalAlign=bottom;spacingBottom=5;points=[];childLayout=stackLayout;stackBorder=20;stackSpacing=20;resizeLast=0;resizeParent=1;horizontalStack=0;collapsible=0;sketch=1;strokeColor=none;fillStyle=solid;fillColor=none;" vertex="1" parent="_5mSTuPxr-ZiKRkBDSY7-1">
            <mxGeometry x="360" y="28" width="180" height="612" as="geometry" />
          </mxCell>
        </object>
        <object label="Task 1&lt;br&gt;&lt;span style=&quot;font-weight: normal&quot;&gt;&lt;i&gt;&lt;font style=&quot;font-size: 10px&quot;&gt;%status%&lt;/font&gt;&lt;/i&gt;&lt;/span&gt;" placeholders="1" id="7V4wO9x8OLWOLXkMa94R-11">
          <mxCell style="whiteSpace=wrap;html=1;strokeWidth=2;fillColor=swimlane;fontStyle=1;spacingTop=0;rounded=1;arcSize=9;points=[];sketch=1;fontFamily=Comic Sans MS;hachureGap=8;fillWeight=1;" vertex="1" parent="7V4wO9x8OLWOLXkMa94R-10">
            <mxGeometry x="20" y="21" width="140" height="80" as="geometry" />
          </mxCell>
        </object>
        <object label="&lt;div style=&quot;font-size: 8px;&quot;&gt;- Review course content, difficulty, duration, and diet advice.&lt;br&gt; - Check AI suggestions and user reviews.&lt;br&gt; - Decide to join the course or use the equipment.&lt;br&gt;&lt;/div&gt;" placeholders="1" id="7V4wO9x8OLWOLXkMa94R-12">
          <mxCell style="whiteSpace=wrap;html=1;strokeWidth=2;fillColor=#fff2cc;fontStyle=1;spacingTop=0;rounded=1;arcSize=9;points=[];sketch=1;fontFamily=Comic Sans MS;hachureGap=8;fillWeight=1;align=left;strokeColor=#d6b656;" vertex="1" parent="7V4wO9x8OLWOLXkMa94R-10">
            <mxGeometry x="20" y="121" width="140" height="80" as="geometry" />
          </mxCell>
        </object>
        <object label="&lt;div style=&quot;font-size: 9px;&quot;&gt;- Course details page&lt;br&gt; - AI diet suggestions&lt;br&gt; - User reviews&lt;br&gt;&lt;/div&gt;" placeholders="1" id="7V4wO9x8OLWOLXkMa94R-13">
          <mxCell style="whiteSpace=wrap;html=1;strokeWidth=2;fillColor=#fff2cc;fontStyle=1;spacingTop=0;rounded=1;arcSize=9;points=[];sketch=1;fontFamily=Comic Sans MS;hachureGap=8;fillWeight=1;align=left;strokeColor=#d6b656;" vertex="1" parent="7V4wO9x8OLWOLXkMa94R-10">
            <mxGeometry x="20" y="221" width="140" height="80" as="geometry" />
          </mxCell>
        </object>
        <object label="&lt;div style=&quot;font-size: 9px;&quot;&gt;“Is this course and diet suggestion right for me? What do others say?”&lt;br&gt;&lt;/div&gt;" placeholders="1" id="7V4wO9x8OLWOLXkMa94R-22">
          <mxCell style="whiteSpace=wrap;html=1;strokeWidth=2;fillColor=#fff2cc;fontStyle=1;spacingTop=0;rounded=1;arcSize=9;points=[];sketch=1;fontFamily=Comic Sans MS;hachureGap=8;fillWeight=1;align=left;strokeColor=#d6b656;" vertex="1" parent="7V4wO9x8OLWOLXkMa94R-10">
            <mxGeometry x="20" y="321" width="140" height="80" as="geometry" />
          </mxCell>
        </object>
        <object label="&lt;div style=&quot;&quot;&gt;&lt;div style=&quot;&quot;&gt;🙂 &lt;br&gt; Satisfied&lt;br&gt;&lt;/div&gt;&lt;/div&gt;" placeholders="1" id="7V4wO9x8OLWOLXkMa94R-27">
          <mxCell style="whiteSpace=wrap;html=1;strokeWidth=2;fillColor=#fff2cc;fontStyle=1;spacingTop=0;rounded=1;arcSize=9;points=[];sketch=1;fontFamily=Comic Sans MS;hachureGap=8;fillWeight=1;align=center;strokeColor=#d6b656;" vertex="1" parent="7V4wO9x8OLWOLXkMa94R-10">
            <mxGeometry x="20" y="421" width="140" height="80" as="geometry" />
          </mxCell>
        </object>
        <object label="&lt;div style=&quot;font-size: 9px;&quot;&gt;- Display clear course content and diet plans.&lt;br&gt; - Offer user reviews and AI analysis.&lt;br&gt;&lt;/div&gt;" placeholders="1" id="7V4wO9x8OLWOLXkMa94R-28">
          <mxCell style="whiteSpace=wrap;html=1;strokeWidth=2;fillColor=#fff2cc;fontStyle=1;spacingTop=0;rounded=1;arcSize=9;points=[];sketch=1;fontFamily=Comic Sans MS;hachureGap=8;fillWeight=1;align=left;strokeColor=#d6b656;" vertex="1" parent="7V4wO9x8OLWOLXkMa94R-10">
            <mxGeometry x="20" y="521" width="140" height="80" as="geometry" />
          </mxCell>
        </object>
        <object label="Participate" status="New" id="7V4wO9x8OLWOLXkMa94R-1">
          <mxCell style="swimlane;strokeWidth=2;fontFamily=Comic Sans MS;html=0;startSize=1;verticalAlign=bottom;spacingBottom=5;points=[];childLayout=stackLayout;stackBorder=20;stackSpacing=20;resizeLast=0;resizeParent=1;horizontalStack=0;collapsible=0;sketch=1;strokeColor=none;fillStyle=solid;fillColor=none;" vertex="1" parent="_5mSTuPxr-ZiKRkBDSY7-1">
            <mxGeometry x="540" y="28" width="180" height="612" as="geometry" />
          </mxCell>
        </object>
        <object label="Task 1&lt;br&gt;&lt;span style=&quot;font-weight: normal&quot;&gt;&lt;i&gt;&lt;font style=&quot;font-size: 10px&quot;&gt;%status%&lt;/font&gt;&lt;/i&gt;&lt;/span&gt;" placeholders="1" id="7V4wO9x8OLWOLXkMa94R-2">
          <mxCell style="whiteSpace=wrap;html=1;strokeWidth=2;fillColor=swimlane;fontStyle=1;spacingTop=0;rounded=1;arcSize=9;points=[];sketch=1;fontFamily=Comic Sans MS;hachureGap=8;fillWeight=1;" vertex="1" parent="7V4wO9x8OLWOLXkMa94R-1">
            <mxGeometry x="20" y="21" width="140" height="80" as="geometry" />
          </mxCell>
        </object>
        <object label="&lt;div style=&quot;font-size: 9px;&quot;&gt;- Follow the course and diet plan.&lt;br&gt; - Upload workout videos for action analysis.&lt;br&gt; - Record daily fitness and diet check-ins.&lt;br&gt;&lt;/div&gt;" placeholders="1" id="7V4wO9x8OLWOLXkMa94R-3">
          <mxCell style="whiteSpace=wrap;html=1;strokeWidth=2;fillColor=#f8cecc;fontStyle=1;spacingTop=0;rounded=1;arcSize=9;points=[];sketch=1;fontFamily=Comic Sans MS;hachureGap=8;fillWeight=1;align=left;strokeColor=#b85450;" vertex="1" parent="7V4wO9x8OLWOLXkMa94R-1">
            <mxGeometry x="20" y="121" width="140" height="80" as="geometry" />
          </mxCell>
        </object>
        <object label="&lt;div style=&quot;font-size: 9px;&quot;&gt;- Fitness and diet check-in page&lt;br&gt; - Action correction&lt;br&gt; - Course participation&lt;br&gt;&lt;/div&gt;" placeholders="1" id="7V4wO9x8OLWOLXkMa94R-4">
          <mxCell style="whiteSpace=wrap;html=1;strokeWidth=2;fillColor=#f8cecc;fontStyle=1;spacingTop=0;rounded=1;arcSize=9;points=[];sketch=1;fontFamily=Comic Sans MS;hachureGap=8;fillWeight=1;align=left;strokeColor=#b85450;" vertex="1" parent="7V4wO9x8OLWOLXkMa94R-1">
            <mxGeometry x="20" y="221" width="140" height="80" as="geometry" />
          </mxCell>
        </object>
        <object label="&lt;div style=&quot;font-size: 9px;&quot;&gt;“I completed my daily check-in, and my diet is on track too!”&lt;br&gt;&lt;/div&gt;" placeholders="1" id="7V4wO9x8OLWOLXkMa94R-23">
          <mxCell style="whiteSpace=wrap;html=1;strokeWidth=2;fillColor=#f8cecc;fontStyle=1;spacingTop=0;rounded=1;arcSize=9;points=[];sketch=1;fontFamily=Comic Sans MS;hachureGap=8;fillWeight=1;align=left;strokeColor=#b85450;" vertex="1" parent="7V4wO9x8OLWOLXkMa94R-1">
            <mxGeometry x="20" y="321" width="140" height="80" as="geometry" />
          </mxCell>
        </object>
        <object label="&lt;div style=&quot;&quot;&gt;&lt;div style=&quot;&quot;&gt;&lt;font style=&quot;font-size: 12px;&quot;&gt;😁&lt;/font&gt;&lt;/div&gt;&lt;div style=&quot;&quot;&gt;&lt;font style=&quot;font-size: 12px;&quot;&gt;excited&lt;/font&gt;&lt;/div&gt;&lt;/div&gt;" placeholders="1" id="7V4wO9x8OLWOLXkMa94R-29">
          <mxCell style="whiteSpace=wrap;html=1;strokeWidth=2;fillColor=#f8cecc;fontStyle=1;spacingTop=0;rounded=1;arcSize=9;points=[];sketch=1;fontFamily=Comic Sans MS;hachureGap=8;fillWeight=1;align=center;strokeColor=#b85450;" vertex="1" parent="7V4wO9x8OLWOLXkMa94R-1">
            <mxGeometry x="20" y="421" width="140" height="80" as="geometry" />
          </mxCell>
        </object>
        <object label="&lt;div style=&quot;font-size: 9px;&quot;&gt;- Provide daily check-in reminders and virtual rewards.&lt;br&gt; - Offer clear feedback on action correction and diet results.&lt;br&gt;&lt;/div&gt;" placeholders="1" id="7V4wO9x8OLWOLXkMa94R-30">
          <mxCell style="whiteSpace=wrap;html=1;strokeWidth=2;fillColor=#f8cecc;fontStyle=1;spacingTop=0;rounded=1;arcSize=9;points=[];sketch=1;fontFamily=Comic Sans MS;hachureGap=8;fillWeight=1;align=left;strokeColor=#b85450;" vertex="1" parent="7V4wO9x8OLWOLXkMa94R-1">
            <mxGeometry x="20" y="521" width="140" height="80" as="geometry" />
          </mxCell>
        </object>
        <object label="Feedback" status="In progress" id="_5mSTuPxr-ZiKRkBDSY7-6">
          <mxCell style="swimlane;strokeWidth=2;fontFamily=Comic Sans MS;html=0;startSize=1;verticalAlign=bottom;spacingBottom=5;points=[];childLayout=stackLayout;stackBorder=20;stackSpacing=20;resizeLast=0;resizeParent=1;horizontalStack=0;collapsible=0;sketch=1;strokeColor=none;fillStyle=solid;fillColor=none;" parent="_5mSTuPxr-ZiKRkBDSY7-1" vertex="1">
            <mxGeometry x="720" y="28" width="180" height="612" as="geometry" />
          </mxCell>
        </object>
        <object label="Task 4&lt;br&gt;&lt;span style=&quot;font-weight: normal&quot;&gt;&lt;i&gt;&lt;font style=&quot;font-size: 10px&quot;&gt;%status%&lt;/font&gt;&lt;/i&gt;&lt;/span&gt;" placeholders="1" id="_5mSTuPxr-ZiKRkBDSY7-7">
          <mxCell style="whiteSpace=wrap;html=1;strokeWidth=2;fillColor=swimlane;fontStyle=1;spacingTop=0;rounded=1;arcSize=9;points=[];sketch=1;fontFamily=Comic Sans MS;hachureGap=8;fillWeight=1;" parent="_5mSTuPxr-ZiKRkBDSY7-6" vertex="1">
            <mxGeometry x="20" y="21" width="140" height="80" as="geometry" />
          </mxCell>
        </object>
        <object label="&lt;div style=&quot;font-size: 9px;&quot;&gt;- Submit feedback and suggestions.&lt;br&gt; - Review the course and diet plan.&lt;br&gt; - Share action correction experiences.&lt;br&gt;&lt;/div&gt;" placeholders="1" id="_5mSTuPxr-ZiKRkBDSY7-8">
          <mxCell style="whiteSpace=wrap;html=1;strokeWidth=2;fillColor=#e1d5e7;fontStyle=1;spacingTop=0;rounded=1;arcSize=9;points=[];sketch=1;fontFamily=Comic Sans MS;hachureGap=8;fillWeight=1;align=left;strokeColor=#9673a6;" parent="_5mSTuPxr-ZiKRkBDSY7-6" vertex="1">
            <mxGeometry x="20" y="121" width="140" height="80" as="geometry" />
          </mxCell>
        </object>
        <object label="&lt;div style=&quot;font-size: 9px;&quot;&gt;- Feedback and review page&lt;br&gt; - Action correction results&lt;br&gt; - Forum discussion&lt;br&gt;&lt;/div&gt;" placeholders="1" id="7V4wO9x8OLWOLXkMa94R-20">
          <mxCell style="whiteSpace=wrap;html=1;strokeWidth=2;fillColor=#e1d5e7;fontStyle=1;spacingTop=0;rounded=1;arcSize=9;points=[];sketch=1;fontFamily=Comic Sans MS;hachureGap=8;fillWeight=1;align=left;strokeColor=#9673a6;" vertex="1" parent="_5mSTuPxr-ZiKRkBDSY7-6">
            <mxGeometry x="20" y="221" width="140" height="80" as="geometry" />
          </mxCell>
        </object>
        <object label="&lt;div style=&quot;font-size: 9px;&quot;&gt;“The action correction was helpful, and the diet suggestions were great!”&lt;br&gt;“Some areas could be improved.”&lt;br&gt;&lt;/div&gt;" placeholders="1" id="7V4wO9x8OLWOLXkMa94R-24">
          <mxCell style="whiteSpace=wrap;html=1;strokeWidth=2;fillColor=#e1d5e7;fontStyle=1;spacingTop=0;rounded=1;arcSize=9;points=[];sketch=1;fontFamily=Comic Sans MS;hachureGap=8;fillWeight=1;align=left;strokeColor=#9673a6;" vertex="1" parent="_5mSTuPxr-ZiKRkBDSY7-6">
            <mxGeometry x="20" y="321" width="140" height="80" as="geometry" />
          </mxCell>
        </object>
        <object label="&lt;div style=&quot;font-size: 9px;&quot;&gt;&lt;div style=&quot;border-color: var(--border-color); font-size: 12px;&quot;&gt;🙂 &lt;br&gt; Satisfied&lt;br&gt;&lt;/div&gt;&lt;/div&gt;" placeholders="1" id="7V4wO9x8OLWOLXkMa94R-31">
          <mxCell style="whiteSpace=wrap;html=1;strokeWidth=2;fillColor=#e1d5e7;fontStyle=1;spacingTop=0;rounded=1;arcSize=9;points=[];sketch=1;fontFamily=Comic Sans MS;hachureGap=8;fillWeight=1;align=center;strokeColor=#9673a6;" vertex="1" parent="_5mSTuPxr-ZiKRkBDSY7-6">
            <mxGeometry x="20" y="421" width="140" height="80" as="geometry" />
          </mxCell>
        </object>
        <object label="&lt;div style=&quot;font-size: 9px;&quot;&gt;- Offer a friendly feedback section and forums for users to share experiences and suggestions.&lt;br&gt;&lt;/div&gt;" placeholders="1" id="7V4wO9x8OLWOLXkMa94R-32">
          <mxCell style="whiteSpace=wrap;html=1;strokeWidth=2;fillColor=#e1d5e7;fontStyle=1;spacingTop=0;rounded=1;arcSize=9;points=[];sketch=1;fontFamily=Comic Sans MS;hachureGap=8;fillWeight=1;align=left;strokeColor=#9673a6;" vertex="1" parent="_5mSTuPxr-ZiKRkBDSY7-6">
            <mxGeometry x="20" y="521" width="140" height="80" as="geometry" />
          </mxCell>
        </object>
        <object label="I want to find a fitness plan, get healthy diet advice, and improve my workout performance using the smart system" placeholders="1" id="_5mSTuPxr-ZiKRkBDSY7-5">
          <mxCell style="whiteSpace=wrap;html=1;strokeWidth=2;fillColor=swimlane;fontStyle=1;spacingTop=0;rounded=1;arcSize=9;points=[];sketch=1;fontFamily=Comic Sans MS;hachureGap=8;fillWeight=1;" parent="1" vertex="1">
            <mxGeometry x="200" y="138" width="680" height="80" as="geometry" />
          </mxCell>
        </object>
        <mxCell id="7V4wO9x8OLWOLXkMa94R-15" value="" style="endArrow=none;html=1;rounded=0;fontFamily=Comic Sans MS;" edge="1" parent="1" source="7V4wO9x8OLWOLXkMa94R-34">
          <mxGeometry width="50" height="50" relative="1" as="geometry">
            <mxPoint y="230" as="sourcePoint" />
            <mxPoint x="900" y="230" as="targetPoint" />
          </mxGeometry>
        </mxCell>
        <mxCell id="7V4wO9x8OLWOLXkMa94R-36" value="" style="endArrow=none;html=1;rounded=0;fontFamily=Comic Sans MS;" edge="1" parent="1" target="7V4wO9x8OLWOLXkMa94R-34">
          <mxGeometry width="50" height="50" relative="1" as="geometry">
            <mxPoint y="230" as="sourcePoint" />
            <mxPoint x="870" y="230" as="targetPoint" />
          </mxGeometry>
        </mxCell>
        <mxCell id="7V4wO9x8OLWOLXkMa94R-34" value="&lt;font face=&quot;Comic Sans MS&quot;&gt;Customer Experience&lt;/font&gt;" style="text;html=1;align=center;verticalAlign=middle;resizable=0;points=[];autosize=1;strokeColor=none;fillColor=none;" vertex="1" parent="1">
          <mxGeometry y="215" width="140" height="30" as="geometry" />
        </mxCell>
      </root>
    </mxGraphModel>
  </diagram>
</mxfile>
